<svg width="38" height="45" viewBox="0 0 38 45" fill="none" xmlns="http://www.w3.org/2000/svg">
<path d="M23.3495 0.0535889C22.4973 0.131138 20.5174 0.510269 19.5775 0.760151C14.7529 2.08711 11.6075 4.74102 10.3544 8.54956C10.1414 9.23028 10.0912 9.74728 10.0161 12.0996L9.94086 14.8569L6.43207 14.9C3.47466 14.9345 2.86062 14.9689 2.5348 15.0896C1.95835 15.305 1.14381 15.9599 0.993436 16.3304C0.905716 16.5458 0.855591 18.0451 0.855591 20.5094V24.3438L1.18141 24.7919C1.35685 25.0418 1.70773 25.3606 1.95835 25.4984C2.7729 25.9551 3.31175 26.0154 6.83307 26.0154H10.0035V34.2443C10.0035 43.3262 9.95339 42.8092 10.793 43.4038C11.0186 43.5675 11.4196 43.7743 11.6953 43.8777C12.184 44.0672 12.2842 44.0672 18.2116 44.0672C24.164 44.0672 24.2267 44.0672 24.7405 43.8777C25.342 43.6622 26.0061 43.1625 26.2442 42.7661C26.3946 42.5249 26.4197 41.0342 26.4197 34.2529V26.024L30.53 25.9982C34.4398 25.9724 34.6528 25.9637 35.129 25.7914C35.7681 25.5501 36.2694 25.2055 36.6202 24.766C36.8709 24.43 36.8834 24.318 36.921 20.7162C36.946 18.1916 36.921 16.8732 36.8207 16.563C36.6453 15.9943 36.1064 15.4946 35.3546 15.1844L34.7531 14.9431L30.6177 14.9L26.4823 14.8569V13.2198C26.4949 12.315 26.5324 11.4361 26.5826 11.2552C26.758 10.652 26.8583 10.6434 31.1189 10.5917C34.3395 10.5486 34.9536 10.5228 35.3796 10.3935C36.0062 10.204 36.6328 9.79036 36.9836 9.34229C37.2593 9.00624 37.2593 8.9287 37.2593 5.2494C37.2593 1.54426 37.2593 1.49256 36.9836 1.1479C36.6328 0.699833 36.0939 0.320705 35.53 0.131138C35.1415 0.0105057 34.4523 -0.00672913 29.4021 0.00188828C26.2818 0.0105057 23.5625 0.0363541 23.3495 0.0535889ZM33.5375 5.22355L33.4999 7.96364L30.1164 8.01534C27.4472 8.0498 26.5951 8.09288 26.0813 8.2049C24.7029 8.5151 23.5249 9.29921 23.1114 10.1953C22.773 10.9019 22.6352 12.2633 22.6853 14.4089C22.7229 16.5285 22.773 16.7009 23.3871 17.08C23.976 17.4505 24.4021 17.4764 28.9009 17.485H33.1866V20.4577V23.4305H28.7254C24.4522 23.4305 24.2392 23.4391 23.8006 23.6114C23.55 23.7062 23.1991 23.9216 23.0362 24.0939L22.7229 24.4127L22.6853 32.969L22.6602 41.5253H18.2116H13.7629L13.7379 32.969L13.7003 24.4127L13.387 24.0939C13.2241 23.9216 12.8732 23.7062 12.6226 23.6114C12.184 23.4391 11.9584 23.4305 8.38697 23.4305H4.61501V20.4577V17.485H8.22406C11.9835 17.4764 12.4597 17.4333 13.0361 17.08C13.6878 16.675 13.6878 16.6492 13.7755 12.9613C13.8507 9.60941 13.8632 9.48878 14.1765 8.69605C14.7028 7.35186 15.3043 6.4902 16.3569 5.52514C17.9234 4.10339 20.4046 3.09525 23.2367 2.71612C24.6778 2.52655 24.7154 2.51794 29.3395 2.50932L33.5626 2.49209L33.5375 5.22355Z" fill="#B43D3D"/>
</svg>
