<svg width="243" height="112" viewBox="0 0 243 112" fill="none" xmlns="http://www.w3.org/2000/svg">
<path d="M53.5082 0.711028C27.7484 3.82621 7.41178 20.726 1.31079 44.0899C-1.06182 52.9681 -0.129725 65.8961 3.42919 74.9301C12.0723 96.5806 32.5784 110.599 57.2366 111.767C81.9795 113.013 104.011 101.331 115.196 81.0047C116.637 78.3568 117.823 75.8647 117.823 75.3974C117.823 74.9301 114.772 74.6186 109.942 74.6186H102.062L98.503 79.6029C90.1141 91.3627 76.5564 97.9824 61.1344 97.9824C47.2377 97.9046 38.5099 94.6336 28.85 85.6775C19.2748 76.7214 15.2922 68.2325 15.2922 56.3948C15.2922 39.8844 24.6979 25.944 40.7978 18.6233C62.236 8.88837 87.3179 15.8196 100.113 34.9001L102.74 38.7941H110.112C114.179 38.7941 117.738 38.5604 117.992 38.3268C118.755 37.7038 114.857 29.9937 111.637 25.6324C108.248 20.8818 103.163 15.8196 98.2488 12.1593C86.64 3.51469 68.5912 -1.15808 53.5082 0.711028Z" fill="#FE0000" fill-opacity="0.6"/>
<path d="M174.681 0.710971C158.75 2.58008 142.82 11.0689 133.668 22.3615C130.194 26.6448 124.602 36.3019 124.602 37.9373C124.602 38.4825 127.398 38.794 132.482 38.794H140.278L143.074 34.5885C146.294 29.5264 153.242 23.0624 158.411 20.2587C166.038 16.1311 172.647 14.4956 181.883 14.4956C195.61 14.4178 204.592 17.8444 213.998 26.6448C220.947 33.1088 223.997 37.9373 226.285 46.2704C228.403 53.9026 228.403 58.809 226.285 66.5191C218.913 92.8423 187.645 105.692 161.038 93.3096C155.022 90.5059 148.243 84.8986 144.091 79.2913L140.786 74.8522L133.16 74.6964C126.974 74.5407 125.449 74.7743 125.449 75.631C125.449 78.0452 131.55 87.7802 136.211 92.6866C144.769 101.798 155.107 107.639 167.987 110.443C204.931 118.543 240.775 94.0884 242.893 59.1984C243.91 43.3889 237.64 28.436 225.183 16.832C215.439 7.798 203.237 2.34644 189.001 0.633092C181.883 -0.223582 182.137 -0.223582 174.681 0.710971Z" fill="#FE0000" fill-opacity="0.6"/>
<path d="M43.0009 49.4635C42.662 49.6971 42.4078 53.0459 42.4078 56.862V63.7154L80.7932 63.5596L119.094 63.326V56.3168V49.3077L81.3016 49.0741C60.5413 48.9962 43.2551 49.1519 43.0009 49.4635Z" fill="#FE0000" fill-opacity="0.6"/>
</svg>
