<?xml version="1.0" standalone="no"?>
<!DOCTYPE svg PUBLIC "-//W3C//DTD SVG 20010904//EN"
 "http://www.w3.org/TR/2001/REC-SVG-20010904/DTD/svg10.dtd">
<svg version="1.0" xmlns="http://www.w3.org/2000/svg"
 width="300.000000pt" height="300.000000pt" viewBox="0 0 300.000000 300.000000"
 preserveAspectRatio="xMidYMid meet">

<g transform="translate(0.000000,300.000000) scale(0.100000,-0.100000)"
fill="#000000" stroke="none">
<path d="M701 2299 c-304 -40 -544 -257 -616 -557 -28 -114 -17 -280 25 -396
102 -278 344 -458 635 -473 292 -16 552 134 684 395 17 34 31 66 31 72 0 6
-36 10 -93 10 l-93 0 -42 -64 c-99 -151 -259 -236 -441 -236 -164 1 -267 43
-381 158 -113 115 -160 224 -160 376 0 212 111 391 301 485 253 125 549 36
700 -209 l31 -50 87 0 c48 0 90 3 93 6 9 8 -37 107 -75 163 -40 61 -100 126
-158 173 -137 111 -350 171 -528 147z"/>
<path d="M2131 2299 c-188 -24 -376 -133 -484 -278 -41 -55 -107 -179 -107
-200 0 -7 33 -11 93 -11 l92 0 33 54 c38 65 120 148 181 184 90 53 168 74 277
74 162 1 268 -43 379 -156 82 -83 118 -145 145 -252 25 -98 25 -161 0 -260
-87 -338 -456 -503 -770 -344 -71 36 -151 108 -200 180 l-39 57 -90 2 c-73 2
-91 -1 -91 -12 0 -31 72 -156 127 -219 101 -117 223 -192 375 -228 436 -104
859 210 884 658 12 203 -62 395 -209 544 -115 116 -259 186 -427 208 -84 11
-81 11 -169 -1z"/>
<path d="M577 1673 c-4 -3 -7 -46 -7 -95 l0 -88 453 2 452 3 0 90 0 90 -446 3
c-245 1 -449 -1 -452 -5z"/>
</g>
</svg>
