<svg width="118" height="112" viewBox="0 0 118 112" fill="none" xmlns="http://www.w3.org/2000/svg">
<path d="M49.9528 0.710971C34.2468 2.58008 18.5408 11.0689 9.51819 22.3615C6.09294 26.6448 0.579132 36.3019 0.579132 37.9373C0.579132 38.4825 3.33604 38.794 8.34859 38.794H16.0345L18.7914 34.5885C21.966 29.5264 28.8165 23.0624 33.9126 20.2587C41.4314 16.1311 47.9478 14.4956 57.0539 14.4956C70.5878 14.4178 79.4433 17.8444 88.7165 26.6448C95.567 33.1088 98.5746 37.9373 100.83 46.2704C102.919 53.9026 102.919 58.809 100.83 66.5191C93.562 92.8423 62.7348 105.692 36.5024 93.3096C30.5709 90.5059 23.8875 84.8986 19.7939 79.2913L16.5358 74.8522L9.01693 74.6964C2.91832 74.5407 1.41456 74.7743 1.41456 75.631C1.41456 78.0452 7.42962 87.7802 12.0245 92.6866C20.4623 101.798 30.6545 107.639 43.3529 110.443C79.7775 118.543 115.116 94.0884 117.205 59.1984C118.207 43.3889 112.025 28.436 99.7442 16.832C90.1368 7.798 78.1066 2.34644 64.0715 0.633092C57.0539 -0.223582 57.3045 -0.223582 49.9528 0.710971Z" fill="#FE0000" fill-opacity="0.9"/>
</svg>
