<svg width="118" height="112" viewBox="0 0 118 112" fill="none" xmlns="http://www.w3.org/2000/svg">
<path d="M53.4869 0.711028C28.09 3.82621 8.03978 20.726 2.02472 44.0899C-0.314474 52.9681 0.604494 65.8961 4.11328 74.9301C12.6346 96.5806 32.8519 110.599 57.1628 111.767C81.5572 113.013 103.278 101.331 114.306 81.0047C115.726 78.3568 116.896 75.8647 116.896 75.3974C116.896 74.9301 113.888 74.6186 109.126 74.6186H101.357L97.848 79.6029C89.5773 91.3627 76.2105 97.9824 61.0058 97.9824C47.3048 97.9046 38.6999 94.6336 29.1761 85.6775C19.7357 76.7214 15.8092 68.2325 15.8092 56.3948C15.8092 39.8844 25.0825 25.944 40.9556 18.6233C62.0918 8.88837 86.8204 15.8196 99.4353 34.9001L102.025 38.7941H109.293C113.303 38.7941 116.812 38.5604 117.063 38.3268C117.815 37.7038 113.972 29.9937 110.797 25.6324C107.455 20.8818 102.443 15.8196 97.5974 12.1593C86.1521 3.51469 68.3575 -1.15808 53.4869 0.711028Z" fill="#FE0000" fill-opacity="0.9"/>
</svg>
