<svg width="47" height="44" viewBox="0 0 47 44" fill="none" xmlns="http://www.w3.org/2000/svg">
<path d="M11.2639 0.996254C9.73743 1.16094 7.93672 1.69617 6.56561 2.39608C3.01903 4.23232 0.679021 7.42722 0.231128 11.0585C0.0940184 12.1537 0.0940184 31.8172 0.231128 32.9123C0.880116 38.2069 5.52358 42.39 11.401 42.9746C12.6167 43.0981 34.4447 43.0981 35.6604 42.9746C41.5378 42.39 46.1813 38.2069 46.8303 32.9123C46.9674 31.8172 46.9674 12.1537 46.8303 11.0585C46.1813 5.7639 41.5378 1.58089 35.6604 0.996254C34.5818 0.889206 12.3151 0.889206 11.2639 0.996254ZM36.611 3.63946C38.5123 4.10881 39.9748 4.85813 41.2545 6.01916C42.5433 7.17196 43.3751 8.48944 43.9053 10.2022L44.1429 10.9927V21.9854V32.9782L43.9053 33.7687C43.3751 35.4814 42.5433 36.7989 41.2545 37.9517C39.9748 39.1127 38.5123 39.862 36.611 40.3396L35.7335 40.5537H23.5307H11.3279L10.4504 40.3396C8.54914 39.862 7.08663 39.1127 5.80694 37.9517C4.5181 36.7989 3.6863 35.4814 3.15614 33.7687L2.91849 32.9782V21.9854V10.9927L3.15614 10.2022C3.6863 8.48944 4.5181 7.17196 5.7978 6.01916C7.31515 4.65227 9.31696 3.7465 11.4193 3.46654C11.721 3.42537 17.315 3.40066 23.8506 3.4089L35.7335 3.41713L36.611 3.63946Z" fill="#B43D3D"/>
<path d="M36.6223 6.67709C34.464 6.95427 32.9956 8.88642 33.5175 10.7615C33.8802 12.0904 34.8001 12.9301 36.2331 13.2725C38.6656 13.8432 41.0538 11.8132 40.6469 9.52232C40.4258 8.24237 39.4086 7.16624 38.0818 6.79938C37.6926 6.69339 36.9761 6.63632 36.6223 6.67709ZM37.613 9.27775C38.0906 9.55493 38.1702 10.2316 37.7722 10.6148C37.4449 10.9246 37.0468 10.9979 36.64 10.8186C36.0208 10.5495 35.8881 9.79951 36.3834 9.37558C36.7461 9.05763 37.1707 9.02502 37.613 9.27775Z" fill="#B43D3D"/>
<path d="M21.7366 10.6055C16.5956 11.2302 12.254 14.65 10.9432 19.1302C9.79045 23.0514 11.0827 27.1946 14.3644 30.0964C19.4775 34.6177 27.5841 34.6177 32.6973 30.0964C37.8104 25.5751 37.8104 18.4068 32.6973 13.8855C29.7595 11.296 25.8271 10.1122 21.7366 10.6055ZM25.0183 13.0716C27.2494 13.3676 29.146 14.2143 30.7357 15.62C34.7425 19.1549 34.7425 24.827 30.7357 28.3619C26.7381 31.9049 20.3235 31.9049 16.326 28.3619C12.3191 24.827 12.3191 19.1549 16.326 15.62C18.6408 13.5731 21.8202 12.636 25.0183 13.0716Z" fill="#B43D3D"/>
</svg>
