<svg width="111" height="111" viewBox="0 0 111 111" fill="none" xmlns="http://www.w3.org/2000/svg">
<path d="M50.296 0.406319C26.0827 3.506 6.96684 20.3218 1.2321 43.5694C-0.998078 52.4034 -0.121937 65.2671 3.22333 74.2562C11.3475 95.799 30.6227 109.748 53.8006 110.91C77.0581 112.15 97.7669 100.526 108.281 80.3006C109.635 77.6658 110.75 75.1861 110.75 74.7211C110.75 74.2562 107.882 73.9462 103.342 73.9462H95.935L92.5897 78.9057C84.7045 90.607 71.9606 97.1938 57.4644 97.1938C44.402 97.1163 36.1981 93.8617 27.1181 84.9501C18.1177 76.0385 14.3742 67.5919 14.3742 55.8131C14.3742 39.3848 23.2153 25.5137 38.3486 18.2295C58.4999 8.54298 82.076 15.4398 94.1031 34.4253L96.5722 38.2999H103.502C107.325 38.2999 110.67 38.0674 110.909 37.8349C111.626 37.215 107.962 29.5433 104.935 25.2038C101.749 20.4767 96.9705 15.4398 92.3508 11.7976C81.4389 3.19603 64.4736 -1.45348 50.296 0.406319Z" fill="#FE0000" fill-opacity="0.6"/>
</svg>
