<svg width="112" height="112" viewBox="0 0 112 112" fill="none" xmlns="http://www.w3.org/2000/svg">
<path d="M47.3727 0.710968C32.3032 2.58008 17.2337 11.0689 8.57678 22.3615C5.29035 26.6448 0 36.3019 0 37.9373C0 38.4825 2.64518 38.794 7.45459 38.794H14.829L17.4742 34.5885C20.5202 29.5264 27.093 23.0624 31.9826 20.2587C39.1967 16.1311 45.4489 14.4956 54.186 14.4956C67.1714 14.4177 75.6681 17.8444 84.5655 26.6448C91.1384 33.1088 94.024 37.9373 96.1882 46.2704C98.1922 53.9026 98.1922 58.809 96.1882 66.5191C89.2146 92.8423 59.6367 105.692 34.4674 93.3096C28.7763 90.5059 22.3638 84.8986 18.4361 79.2913L15.31 74.8522L8.09584 74.6964C2.24439 74.5407 0.801569 74.7743 0.801569 75.631C0.801569 78.0452 6.57286 87.7802 10.9815 92.6866C19.0773 101.798 28.8565 107.639 41.0403 110.443C75.9887 118.543 109.895 94.0884 111.899 59.1984C112.861 43.3889 106.929 28.4361 95.1462 16.832C85.9282 7.798 74.3856 2.34644 60.9192 0.633095C54.186 -0.223579 54.4265 -0.223579 47.3727 0.710968Z" fill="#FE0000" fill-opacity="0.6"/>
</svg>
