<svg width="94" height="11" viewBox="0 0 94 11" fill="none" xmlns="http://www.w3.org/2000/svg">
<path opacity="0.7" d="M3.47183 10.5V1.5H0.471832V0H9.47183V1.5H6.47183V10.5H3.47183ZM10.9718 10.5V3H12.4718V1.5H13.9718V0H18.4718V1.5H19.9718V3H21.4718V10.5H18.4718V7.5H13.9718V10.5H10.9718ZM13.9718 6H18.4718V3H16.9718V1.5H15.4718V3H13.9718V6ZM24.4718 10.5V9H22.9718V7.5H25.9718V9H30.4718V6H24.4718V4.5H22.9718V1.5H24.4718V0H31.9718V1.5H33.4718V3H30.4718V1.5H25.9718V4.5H31.9718V6H33.4718V9H31.9718V10.5H24.4718ZM34.9718 10.5V0H37.9718V4.5H42.4718V0H45.4718V10.5H42.4718V6H37.9718V10.5H34.9718ZM46.9718 10.5V0H49.9718V4.5H51.4718V3H52.9718V1.5H54.4718V0H57.4718V1.5H55.9718V3H54.4718V4.5H52.9718V6H54.4718V7.5H55.9718V9H57.4718V10.5H52.9718V9H51.4718V7.5H49.9718V10.5H46.9718ZM58.9718 10.5V0H69.4718V1.5H61.9718V4.5H67.9718V6H61.9718V9H69.4718V10.5H58.9718ZM70.9718 10.5V0H73.9718V1.5H75.4718V3H76.9718V4.5H78.4718V0H81.4718V10.5H78.4718V7.5H76.9718V6H75.4718V4.5H73.9718V10.5H70.9718ZM87.4718 10.5V1.5H84.4718V0H93.4718V1.5H90.4718V10.5H87.4718Z" fill="#FAFAFA"/>
</svg>
