<svg width="47" height="44" viewBox="0 0 47 44" fill="none" xmlns="http://www.w3.org/2000/svg">
<path d="M44.6108 0.21189C43.1025 0.77994 1.01471 18.1007 0.731325 18.2643C0.365663 18.4762 0 19.1212 0 19.5641C0 19.7374 0.0914157 20.0648 0.210256 20.2958L0.41137 20.7291L6.4448 23.9063C11.948 26.8044 12.5148 27.0836 12.9353 27.0836C13.4198 27.0836 13.0907 27.2761 23.4938 20.8928C23.7772 20.7195 23.6127 20.8832 20.2577 24.0026C18.7676 25.3891 17.4878 26.6599 17.3781 26.8525C17.1861 27.1991 17.1861 27.2665 17.1861 34.5838C17.1861 41.6411 17.1953 41.9781 17.3598 42.3247C17.7164 43.0564 18.7494 43.3452 19.3893 42.8927C19.6269 42.729 24.2709 36.4131 24.6731 35.7199C24.7188 35.6236 26.3826 36.5864 30.9533 39.3304L37.1605 43.066H37.7272C38.3763 43.066 38.7054 42.8735 38.9705 42.3343C39.135 42.0069 46.8048 1.95455 46.8048 1.44427C46.8048 1.00138 46.43 0.433333 45.9821 0.192634C45.4793 -0.0673218 45.3513 -0.0673218 44.6108 0.21189ZM40.0309 21.6149C38.2117 31.1947 36.6942 39.0512 36.6668 39.0897C36.6303 39.1282 33.9609 37.5781 30.7339 35.6428C26.6751 33.207 24.7462 32.0998 24.4994 32.0709C24.2526 32.0324 24.0332 32.0805 23.7498 32.2249C23.4207 32.3886 23.1007 32.793 21.7386 34.6993L20.1114 36.9811L20.1206 32.61V28.2389L28.4486 20.4884C33.0193 16.2232 36.8588 12.6031 36.9776 12.449C37.2976 12.0158 37.3524 11.544 37.133 11.0337C36.8039 10.2539 36.1 9.84949 35.451 10.0806C35.2864 10.1383 30.1306 13.2578 23.9966 17.0127L12.853 23.8389L8.98616 21.8074C6.72819 20.6136 5.17413 19.7471 5.23812 19.6989C5.30211 19.67 9.27869 18.0236 14.078 16.0499C18.8773 14.0762 27.4156 10.5716 33.0468 8.26088C38.678 5.95016 43.2945 4.09196 43.3127 4.13047C43.331 4.17861 41.8592 12.0447 40.0309 21.6149Z" fill="#B43D3D"/>
</svg>
