<?xml version="1.0" standalone="no"?>
<!DOCTYPE svg PUBLIC "-//W3C//DTD SVG 20010904//EN"
 "http://www.w3.org/TR/2001/REC-SVG-20010904/DTD/svg10.dtd">
<svg version="1.0" xmlns="http://www.w3.org/2000/svg"
 width="512.000000pt" height="512.000000pt" viewBox="0 0 512.000000 512.000000"
 preserveAspectRatio="xMidYMid meet">

<g transform="translate(0.000000,512.000000) scale(0.100000,-0.100000)"
fill="#000000" stroke="none">
<path d="M4880 4886 c-165 -59 -4769 -1858 -4800 -1875 -40 -22 -80 -89 -80
-135 0 -18 10 -52 23 -76 l22 -45 660 -330 c602 -301 664 -330 710 -330 53 0
17 -20 1155 643 31 18 13 1 -354 -323 -163 -144 -303 -276 -315 -296 -21 -36
-21 -43 -21 -803 0 -733 1 -768 19 -804 39 -76 152 -106 222 -59 26 17 534
673 578 745 5 10 187 -90 687 -375 l679 -388 62 0 c71 0 107 20 136 76 18 34
857 4194 857 4247 0 46 -41 105 -90 130 -55 27 -69 27 -150 -2z m-501 -2223
c-199 -995 -365 -1811 -368 -1815 -4 -4 -296 157 -649 358 -444 253 -655 368
-682 371 -27 4 -51 -1 -82 -16 -36 -17 -71 -59 -220 -257 l-178 -237 1 454 0
454 911 805 c500 443 920 819 933 835 35 45 41 94 17 147 -36 81 -113 123
-184 99 -18 -6 -582 -330 -1253 -720 l-1219 -709 -423 211 c-247 124 -417 214
-410 219 7 3 442 174 967 379 525 205 1459 569 2075 809 616 240 1121 433
1123 429 2 -5 -159 -822 -359 -1816z"/>
</g>
</svg>
