<?xml version="1.0" standalone="no"?>
<!DOCTYPE svg PUBLIC "-//W3C//DTD SVG 20010904//EN"
 "http://www.w3.org/TR/2001/REC-SVG-20010904/DTD/svg10.dtd">
<svg version="1.0" xmlns="http://www.w3.org/2000/svg"
 width="1024.000000pt" height="1024.000000pt" viewBox="0 0 1024.000000 1024.000000"
 preserveAspectRatio="xMidYMid meet">

<g transform="translate(0.000000,1024.000000) scale(0.100000,-0.100000)"
fill="#000000" stroke="none">
<path d="M4870 7014 c-637 -45 -1210 -200 -1785 -484 -498 -246 -952 -570
-1390 -992 -130 -126 -379 -391 -398 -424 -20 -35 436 -496 738 -749 1280
-1070 2869 -1431 4357 -991 732 217 1400 602 2018 1160 181 165 550 547 550
571 0 13 -254 286 -381 410 -885 862 -1878 1353 -2989 1480 -128 15 -600 27
-720 19z m372 -404 c386 -32 695 -176 968 -449 223 -223 352 -463 417 -771 25
-120 25 -448 0 -573 -199 -985 -1289 -1511 -2192 -1059 -414 207 -706 582
-807 1040 -30 133 -33 463 -5 592 47 217 149 447 271 610 86 114 251 272 366
349 258 173 491 247 845 269 11 1 73 -3 137 -8z"/>
<path d="M4986 5654 c-132 -32 -278 -137 -345 -248 -63 -105 -84 -179 -85
-296 -1 -165 50 -289 168 -405 226 -223 576 -223 802 0 139 137 198 324 160
505 -68 320 -383 521 -700 444z"/>
</g>
</svg>
